<?xml version="1.0" encoding="UTF-8"?><svg xmlns="http://www.w3.org/2000/svg" viewBox="0 0 615.42 690.14"><defs><style>.d{fill:lime;}.e{fill:#6857a0;}</style></defs><g id="a"/><g id="b"><g id="c"><g><g><path class="e" d="M191.56,496.31c1.82,0,2.27,2.27,1.36,4.09-8.65,18.66-31.85,81.45-34.12,88.73-2.73,7.74-21.84,64.16-21.84,68.25s2.27,5.46,5,5.46c5.46,0,28.67-23.66,31.85-27.76,1.37-1.36,2.73-2.28,3.64-.91l4.09,4.55c1.37,1.36,1.82,2.28,.91,3.64-5,9.1-44.59,47.78-70.53,47.78-5.46,0-9.55-1.82-9.55-7.74,0-6.82,4.55-20.93,21.84-69.16l-2.27-.91c-19.11,29.12-65.07,77.81-97.37,77.81-10.46,0-24.57-8.65-24.57-29.12,0-66.43,74.62-164.71,130.13-164.71,19.11,0,27.75,8.19,32.31,15.47l8.65-12.28c1.36-1.82,2.73-3.19,4.55-3.19h15.93Zm-57.33,79.17c6.37-13.2,10.92-24.57,10.92-37.77,0-12.29-4.55-26.85-21.39-26.85-41.86,0-90.55,96.01-90.55,139.23,0,10.47,4.55,15.93,12.29,15.93,22.75,0,80.54-73.71,88.73-90.55Z"/><path class="e" d="M325.32,548.63l-63.7,80.08c-9.56,12.29-18.66,24.11-18.66,30.49,0,6.82,5.92,10.92,15.93,10.92h16.38c2.27,0,4.1,.91,3.19,4.55l-1.82,8.65c-.46,2.27-1.37,3.64-4.55,3.64-4.55,0-24.12-1.36-59.61-1.36-30.03,0-45.96,1.36-50.96,1.36-2.27,0-4.55-.91-4.09-3.19l2.27-10.01c.46-2.73,1.36-3.64,3.19-3.64h6.82c19.57,0,38.68-13.65,55.06-33.22l210.67-251.62c2.27-3.19,4.1-4.09,12.74-4.55,6.37-.45,16.83-1.82,21.39-3.18,5-1.37,11.38-3.64,15.01-3.64s5.46,1.36,4.55,4.55l-66.89,252.53c-1.82,7.73-4.55,19.11-4.55,26.39s7.74,12.74,16.84,12.74h12.28c2.73,0,4.1,1.36,3.64,4.55l-1.36,8.19c-.46,2.73-1.37,4.09-5.46,4.09-5.46,0-23.66-1.36-54.6-1.36s-45.96,1.36-53.24,1.36c-4.09,0-5-1.82-4.55-4.55l1.82-8.65c.46-1.82,1.37-3.64,3.64-3.64h8.65c17.29,0,29.12-3.19,38.22-37.31l22.75-84.18h-80.99Zm86-15.93l35.04-120.12c1.82-6.37-6.37-7.28-10.01-3.19l-99.19,123.31h74.17Z"/></g><g><path class="e" d="M468.41,685.17c0-.64,.48-1.93,1.65-5.07l.81-2.18c.28-.76,.5-1.32,.5-1.65,0-.25-.17-.36-.39-.36-.48,0-1.79,1.51-2.24,1.96-.11,.11-.22,.11-.31,.03l-.22-.25c-.11-.08-.17-.14-.08-.25,.11-.17,2.97-3.53,4.76-3.44,.34,0,.67,.22,.67,.7,0,.5-.45,1.76-.95,3.11l-1.62,4.26c-.39,1.04-.5,1.65-.5,1.85,0,.25,.08,.42,.31,.48,.59-.11,2.1-1.71,2.24-1.96,.06-.08,.17-.08,.31,.06l.22,.2c.11,.14,.14,.2,.06,.34-.17,.22-2.41,2.91-4.73,2.91-.28-.03-.48-.25-.48-.7Zm3.53-16.32c0-.76,.59-1.4,1.46-1.4,.98,0,1.48,.7,1.48,1.34,0,.42-.34,1.4-1.48,1.4-1.23,0-1.46-1.04-1.46-1.34Z"/><path class="e" d="M479.36,675.73h-1.96c-.17,0-.22-.06-.17-.22l.22-.62c.06-.14,.14-.2,.31-.2h2.02l1.46-3.25c.14-.28,.22-.34,.45-.42,.31-.08,1.04-.36,1.26-.48,.17-.08,.31-.17,.42-.17,.17,0,.22,.17,.03,.56l-1.85,3.75h2.86c.14,0,.2,.08,.11,.31l-.25,.59c-.03,.08-.14,.14-.25,.14h-2.86l-2.72,6.3c-.34,.78-.64,1.48-.64,1.79s.11,.48,.36,.48c.81,0,2.63-1.6,2.8-1.79,.08-.11,.17-.08,.25,0l.31,.34c.08,.08,.08,.14,.03,.25-.36,.45-2.97,2.77-5.12,2.77-.7,0-.9-.28-.9-.67,0-.42,.14-.9,.31-1.32l3.53-8.15Z"/><path class="e" d="M495.46,673.94c.11,0,.14,.14,.08,.25-.53,1.15-1.96,5.01-2.1,5.46-.17,.48-1.34,3.95-1.34,4.2s.14,.34,.31,.34c.34,0,1.76-1.46,1.96-1.71,.08-.08,.17-.14,.22-.06l.25,.28c.08,.08,.11,.14,.06,.22-.31,.56-2.74,2.94-4.34,2.94-.34,0-.59-.11-.59-.48,0-.42,.28-1.29,1.34-4.26l-.14-.06c-1.18,1.79-4,4.79-5.99,4.79-.64,0-1.51-.53-1.51-1.79,0-4.09,4.59-10.14,8.01-10.14,1.18,0,1.71,.5,1.99,.95l.53-.76c.08-.11,.17-.2,.28-.2h.98Zm-3.53,4.87c.39-.81,.67-1.51,.67-2.32,0-.76-.28-1.65-1.32-1.65-2.58,0-5.57,5.91-5.57,8.57,0,.64,.28,.98,.76,.98,1.4,0,4.96-4.54,5.46-5.57Z"/><path class="e" d="M502.38,669.41c.42-1.06,.39-1.76-.42-1.76h-.81c-.2,0-.22-.11-.17-.25l.17-.5c.06-.17,.11-.2,.28-.2h3.47c.25,0,.34,.17,.25,.42l-5.82,14.81c-.25,.64-.92,2.18-.34,2.18,.45,0,1.74-1.09,2.07-1.46,.11-.11,.17-.08,.25,0l.31,.34c.06,.06,.08,.17-.03,.28-.14,.22-2.74,2.6-4.54,2.6-.36,0-.62-.17-.62-.81,0-.42,.7-2.18,1.04-3.02l4.9-12.63Z"/><path class="e" d="M504.67,685.17c0-.64,.48-1.93,1.65-5.07l.81-2.18c.28-.76,.5-1.32,.5-1.65,0-.25-.17-.36-.39-.36-.48,0-1.79,1.51-2.24,1.96-.11,.11-.22,.11-.31,.03l-.22-.25c-.11-.08-.17-.14-.08-.25,.11-.17,2.97-3.53,4.76-3.44,.34,0,.67,.22,.67,.7,0,.5-.45,1.76-.95,3.11l-1.62,4.26c-.39,1.04-.5,1.65-.5,1.85,0,.25,.08,.42,.31,.48,.59-.11,2.1-1.71,2.24-1.96,.06-.08,.17-.08,.31,.06l.22,.2c.11,.14,.14,.2,.06,.34-.17,.22-2.41,2.91-4.73,2.91-.28-.03-.48-.25-.48-.7Zm3.53-16.32c0-.76,.59-1.4,1.46-1.4,.98,0,1.48,.7,1.48,1.34,0,.42-.34,1.4-1.48,1.4-1.23,0-1.46-1.04-1.46-1.34Z"/><path class="e" d="M511.81,683.29c0-3.81,3.11-9.35,6.36-9.35,1.32,0,1.6,1.06,1.6,1.57,0,.67-.64,1.18-1.15,1.18-.36,0-.62-.2-.73-.62-.08-.31-.42-.73-.87-.73-.7,0-1.43,.67-2.04,1.93-.76,1.62-1.2,4.03-1.2,4.9,0,2.04,.62,2.32,1.12,2.32,1.09,0,2.16-1.12,2.46-1.51,.08-.11,.17-.17,.25-.11l.31,.28c.08,.06,.14,.14,.03,.31-.39,.59-2.24,2.41-4.03,2.41-.98,0-2.1-.7-2.1-2.58Z"/></g></g><g><g><path class="d" d="M137.41,283.47c0,25.94,5.46,34.13,13.65,34.13,7.28,0,13.65-3.64,15.92-6.83,1.82-2.27,2.73-3.18,4.55-1.82l4.55,3.64c1.37,1.36,2.27,3.64-.46,8.19-3.64,6.82-12.28,22.29-35.49,22.29-16.38,0-28.21-11.83-32.31-30.49h-.91c-9.56,11.38-24.57,20.93-45.05,27.76-8.65,2.73-16.83,2.73-26.84,2.73-10.92,0-27.3-9.1-27.3-37.77,0-20.93,9.56-39.13,45.5-55.06,20.48-9.1,44.14-20.02,51.42-26.39v-29.12c-.91-7.74-1.37-19.56-6.37-25.48s-14.1-10.01-27.3-10.01c-9.1,0-23.21,3.64-29.58,9.55-6.37,5.92-2.27,12.74-2.27,20.93,0,15.93-5.46,25.94-24.11,25.94-7.28,0-10.92-4.09-10.92-14.56,0-14.56,12.74-31.85,31.4-42.77,19.11-11.38,35.04-15.93,55.51-15.93s30.03,6.37,36.4,12.29c9.56,9.55,10.01,20.02,10.01,32.3v96.46Zm-33.22-45.96c-16.38,12.28-60.97,21.39-60.97,59.15,0,16.84,10.01,25.03,23.66,25.03s37.31-15.93,37.31-28.21v-55.97Z"/><path class="d" d="M278.45,211.12c-4.55,11.38-29.58,80.54-31.85,90.09-.46,3.19-1.37,7.74-1.37,10.01,0,6.37,5.46,10.01,15.47,10.01h21.39c3.18,0,4.55,.91,4.55,3.19v10.47c0,3.19-1.37,4.09-3.64,4.09-6.37,0-25.03-1.36-51.87-1.36-33.21,0-43.23,1.36-49.6,1.36-2.27,0-3.19-.91-3.19-3.64v-10.92c0-2.27,1.82-3.19,3.64-3.19h15.92c13.65,0,20.02-6.37,26.39-20.93,3.19-7.28,36.4-91.46,49.6-128.77,3.19-9.1,40.04-106.93,44.14-119.21,1.37-4.55,3.64-10.47,.46-15.47-1.36-1.82-3.19-4.1-3.19-5.92,0-1.37,.91-3.19,4.1-4.1,12.74-2.73,32.76-16.38,37.77-22.75,2.27-2.27,3.64-4.09,5.92-4.09,2.73,0,3.64,2.73,5,7.74,8.65,28.67,44.14,130.59,52.78,159.71,10.46,35.49,40.04,120.12,46.41,133.32,7.73,15.02,19.56,20.48,30.94,20.48h15.02c2.73,0,3.64,1.36,3.64,3.19v11.38c0,2.28-1.37,3.19-4.55,3.19-8.19,0-17.75-1.36-54.6-1.36s-53.69,1.36-64.16,1.36c-2.27,0-3.64-1.36-3.64-4.09v-10.47c0-2.73,1.37-3.19,4.1-3.19h11.38c12.74,0,16.83-4.55,13.65-17.29-3.64-16.38-22.29-74.62-28.67-92.82h-111.93Zm106.47-16.38c-4.09-13.65-40.95-127.4-43.23-134.23-1.36-3.18-2.27-6.37-3.64-6.37-1.82,0-3.64,3.19-5,6.82-2.27,5.92-45.5,122.4-48.69,133.77h100.56Z"/></g><g><path class="d" d="M540.49,330.16c0-1.43-.22-1.71-1.01-2.13l-.53-.28c-.17-.06-.22-.08-.22-.2v-.17c0-.11,.06-.17,.22-.25l2.77-1.43c.17-.08,.28-.11,.39-.11,.17,0,.2,.17,.2,.34l.14,1.93h.11c.84-1.29,2.16-2.44,3.36-2.44,.95,0,1.43,.59,1.43,1.23,0,.81-.67,1.37-1.18,1.37-.31,0-.59-.11-.81-.22-.22-.14-.56-.22-.92-.22-.45,0-1.18,.28-1.65,1.18-.17,.31-.28,.81-.28,.9v5.88c0,.87,.2,1.15,.78,1.15h1.32c.17,0,.2,.08,.2,.25v.5c0,.17-.03,.25-.14,.25-.17,0-1.46-.08-2.97-.08-1.74,0-2.91,.08-3.08,.08-.11,0-.17-.06-.17-.28v-.48c0-.2,.06-.25,.31-.25h1.09c.42,0,.62-.17,.62-.53,.03-.92,.03-1.9,.03-3.36v-2.63Z"/><path class="d" d="M550.26,330.16c-.06,.25-.08,.7-.08,1.34,0,2.74,1.74,4.82,3.98,4.82,1.71,0,2.91-.98,3.39-1.9,.06-.11,.17-.17,.25-.14l.36,.2c.08,.03,.14,.11,0,.42-.5,1.12-1.96,3.05-4.45,3.05-1.6,0-3.36-.48-4.4-1.99-.98-1.43-1.23-2.46-1.23-4.42,0-1.09,.28-2.97,1.76-4.45,1.2-1.23,2.6-1.48,4-1.48,3.22,0,4.12,3.02,4.12,4.12,0,.39-.34,.45-.78,.45h-6.92Zm4.45-.84c.53,0,.76-.14,.76-.39,0-.64-.34-2.49-2.16-2.49-1.23,0-2.41,.81-2.94,2.88h4.34Z"/><path class="d" d="M560.79,344.33c-1.01-.62-1.43-1.34-1.43-2.27,0-1.57,1.6-2.77,2.94-3.36v-.11c-1.18-.25-1.88-1.12-1.88-1.96,0-1.34,1.54-2.3,2.52-2.66v-.06c-1.09-.48-2.6-1.76-2.6-4.26,0-1.82,1.62-4.06,4.79-4.06,2.13,0,3.25,1.29,3.53,1.62,.76-.53,1.71-1.09,2.63-1.09s1.37,.62,1.32,1.18c0,.53-.45,1.04-1.09,1.04-.48,0-.76-.22-.98-.42-.17-.11-.36-.25-.59-.25-.2,0-.53,0-.9,.17,.22,.56,.42,1.18,.42,2.13,0,1.09-.31,2.16-1.04,3.02-.73,.81-2.32,1.4-3.25,1.4-.62,0-1.01-.03-1.43-.14-.56,.22-1.48,.78-1.48,1.57,0,1.15,1.4,1.06,3.28,.95,2.3-.11,3.7,.14,4.82,1.01,1.2,.9,1.34,2.02,1.37,2.69,0,1.32-.48,2.41-1.88,3.44-.73,.53-2.41,1.32-4.79,1.32-1.34,0-2.94-.14-4.28-.9Zm9.24-2.88c0-1.65-1.26-2.91-4.06-2.72l-2.69,.2c-.87,.22-2.24,1.18-2.24,2.69,0,.7,.53,1.54,1.09,1.93,.92,.64,1.93,.78,3.92,.78,1.04,0,4.12-.73,3.98-2.88Zm-2.6-11.93c0-1.23-.25-1.96-.76-2.52-.36-.36-.92-.62-1.34-.62-.64,0-1.32,.11-1.99,.78-.9,.95-1.01,2.24-1.01,3.3,0,.95,.31,1.82,.9,2.44,.5,.48,1.01,.7,1.68,.7,1.9,0,2.52-2.32,2.52-4.09Z"/><path class="d" d="M584.22,331.93c0,1.34,0,2.72,.06,3.3,.08,.87,.39,.98,.73,.98,.17,0,.59,0,.92-.08,.22-.06,.31,0,.34,.11l.08,.36c.03,.17-.03,.22-.14,.25l-2.94,.98c-.17,.06-.34,.11-.56,.11-.11,0-.22-.06-.25-.34l-.22-1.62h-.06c-.78,1.09-2.41,1.96-3.81,1.96-.78,0-1.71-.08-2.63-1.29-1.15-1.48-1.09-2.41-1.09-5.49v-3.25c-.03-.78-.42-.98-1.06-1.06-.48-.03-.62-.06-.62-.2v-.5c0-.17,.06-.22,.31-.22h2.49c.17,0,.28-.03,.39-.06,.11,0,.22-.03,.31-.03,.2,0,.34,.14,.31,.34-.03,.25-.11,1.57-.11,3.22v1.99c0,1.12-.28,2.91,.62,4.2,.7,1.01,1.48,1.06,2.24,1.06s1.88-.73,2.41-1.4c.11-.14,.28-.5,.28-.76v-6.66c-.06-.78-.5-.92-1.2-.98-.48,0-.62-.06-.62-.2v-.48c0-.22,.06-.25,.34-.25h2.6c.2,0,.34-.03,.48-.06,.14,0,.25-.03,.34-.03,.17,0,.28,.14,.25,.28-.03,.25-.17,.98-.17,3.72v2.07Z"/><path class="d" d="M591.42,329.27c0,1.46,0,5.68,.03,6.55,.03,.48,.14,.87,.73,.87h1.26c.25,0,.31,.08,.31,.25v.48c0,.17-.06,.28-.17,.28-.2,0-1.43-.08-3.16-.08s-2.91,.08-3.16,.08c-.14,0-.2-.11-.2-.28v-.48c0-.2,.06-.25,.36-.25h1.34c.31,0,.59-.2,.62-.7,.03-.87,.03-5.68,.03-7.31v-1.76c0-1.99-.03-4.54-.08-5.26-.06-.95-.5-1.4-1.4-1.68l-.56-.2c-.14-.06-.17-.08-.17-.14v-.22c0-.08,.08-.14,.25-.2,.98-.45,2.24-.95,3.28-1.62,.25-.17,.42-.22,.59-.22,.2,0,.25,.14,.22,.5-.03,1.54-.11,7.36-.11,8.9v2.49Z"/><path class="d" d="M603.29,334.28c0,1.6,.34,2.1,.84,2.1,.45,0,.84-.22,.98-.42,.11-.14,.17-.2,.28-.11l.28,.22c.08,.08,.14,.22-.03,.5-.22,.42-.76,1.37-2.18,1.37-1.01,0-1.74-.73-1.99-1.88h-.06c-.59,.7-1.51,1.29-2.77,1.71-.53,.17-1.04,.17-1.65,.17-.67,0-1.68-.56-1.68-2.32,0-1.29,.59-2.41,2.8-3.39,1.26-.56,2.72-1.23,3.16-1.62v-1.79c-.06-.48-.08-1.2-.39-1.57s-.87-.62-1.68-.62c-.56,0-1.43,.22-1.82,.59s-.14,.78-.14,1.29c0,.98-.34,1.6-1.48,1.6-.45,0-.67-.25-.67-.9,0-.9,.78-1.96,1.93-2.63,1.18-.7,2.16-.98,3.42-.98s1.85,.39,2.24,.76c.59,.59,.62,1.23,.62,1.99v5.94Zm-2.04-2.83c-1.01,.76-3.75,1.32-3.75,3.64,0,1.04,.62,1.54,1.46,1.54s2.3-.98,2.3-1.74v-3.44Z"/><path class="d" d="M608.55,330.16c0-1.43-.22-1.71-1.01-2.13l-.53-.28c-.17-.06-.22-.08-.22-.2v-.17c0-.11,.06-.17,.22-.25l2.77-1.43c.17-.08,.28-.11,.39-.11,.17,0,.2,.17,.2,.34l.14,1.93h.11c.84-1.29,2.16-2.44,3.36-2.44,.95,0,1.43,.59,1.43,1.23,0,.81-.67,1.37-1.18,1.37-.31,0-.59-.11-.81-.22-.22-.14-.56-.22-.92-.22-.45,0-1.18,.28-1.65,1.18-.17,.31-.28,.81-.28,.9v5.88c0,.87,.2,1.15,.78,1.15h1.32c.17,0,.2,.08,.2,.25v.5c0,.17-.03,.25-.14,.25-.17,0-1.46-.08-2.97-.08-1.74,0-2.91,.08-3.08,.08-.11,0-.17-.06-.17-.28v-.48c0-.2,.06-.25,.31-.25h1.09c.42,0,.62-.17,.62-.53,.03-.92,.03-1.9,.03-3.36v-2.63Z"/></g></g></g></g></svg>